<?xml version="1.0" standalone="no"?><!DOCTYPE svg PUBLIC "-//W3C//DTD SVG 1.1//EN" "http://www.w3.org/Graphics/SVG/1.1/DTD/svg11.dtd"><svg class="icon" width="16px" height="16.00px" viewBox="0 0 1024 1024" version="1.1" xmlns="http://www.w3.org/2000/svg"><path fill="#000000" d="M919.5 642.6H797c-13.7 0-24.9-11.1-24.9-24.9s11.1-24.9 24.9-24.9h112.6V170.2h-544v422.7h208.9c13.7 0 24.9 11.1 24.9 24.9s-11.1 24.9-24.9 24.9H355.6c-21.9 0-39.8-17.9-39.8-39.8V160.2c0-21.9 17.9-39.8 39.8-39.8h563.9c21.9 0 39.8 17.9 39.8 39.8v442.6c0 22-17.8 39.8-39.8 39.8z"  /><path fill="#000000" d="M667.9 907.9H104c-21.9 0-39.8-17.9-39.8-39.8V425.5c0-21.9 17.9-39.8 39.8-39.8h108c13.7 0 24.9 11.1 24.9 24.9s-11.1 24.9-24.9 24.9h-98v422.7h544V435.4H443.2c-13.7 0-24.9-11.1-24.9-24.9s11.1-24.9 24.9-24.9h224.7c21.9 0 39.8 17.9 39.8 39.8V868c0 22-17.8 39.9-39.8 39.9z m0-472.5z"  /></svg>