<?xml version="1.0" standalone="no"?><!DOCTYPE svg PUBLIC "-//W3C//DTD SVG 1.1//EN" "http://www.w3.org/Graphics/SVG/1.1/DTD/svg11.dtd"><svg class="icon" width="16px" height="16.00px" viewBox="0 0 1024 1024" version="1.1" xmlns="http://www.w3.org/2000/svg"><path fill="#000000" d="M420.5 534c-106.4 0-192.9-86.5-192.9-192.9s86.5-192.9 192.9-192.9 192.9 86.5 192.9 192.9S526.8 534 420.5 534z m0-345.8c-84.3 0-152.9 68.6-152.9 152.9S336.2 494 420.5 494s152.9-68.6 152.9-152.9-68.6-152.9-152.9-152.9zM851.7 644.3h71.1v40h-71.1zM810.2 472.3h112.6v40H810.2zM739.2 324.9h183.6v40H739.2z"  /><path fill="#000000" d="M100.9 798.3c0-40 7.9-78.9 23.5-115.7 15-35.4 36.6-67.3 63.9-94.6 27.4-27.4 59.2-48.9 94.6-63.9 36.7-15.6 75.6-23.5 115.7-23.5h43.7c40 0 78.9 7.9 115.7 23.5 35.4 15 67.3 36.6 94.6 63.9s48.9 59.2 63.9 94.6c15.6 36.7 23.5 75.6 23.5 115.7h-40c0-142.1-115.6-257.7-257.7-257.7h-43.7c-142.1 0-257.7 115.6-257.7 257.7h-40z"  /></svg>