<?xml version="1.0" standalone="no"?><!DOCTYPE svg PUBLIC "-//W3C//DTD SVG 1.1//EN" "http://www.w3.org/Graphics/SVG/1.1/DTD/svg11.dtd"><svg class="icon" width="16px" height="16.00px" viewBox="0 0 1024 1024" version="1.1" xmlns="http://www.w3.org/2000/svg"><path fill="#000000" d="M959.3 951.1h-0.2c-11-0.1-19.9-9.2-19.8-20.2l0.8-79.1H239c-11 0-20-9-20-20s9-20 20-20h741.6l-1.2 119.6c-0.2 10.8-9.1 19.7-20.1 19.7zM192.3 800c-11 0-20-8.9-20-20l-0.3-640.6-83-49.3c-9.5-5.6-12.6-17.9-7-27.4s17.9-12.6 27.4-7L212 116.6l0.2 663.4c0.1 11-8.9 20-19.9 20z"  /><path fill="#000000" d="M161.9 960c-54 0-97.9-43.9-97.9-97.9 0-54 43.9-97.9 97.9-97.9 54 0 97.9 43.9 97.9 97.9 0 54-43.9 97.9-97.9 97.9z m0-155.8c-31.9 0-57.9 26-57.9 57.9s26 57.9 57.9 57.9 57.9-26 57.9-57.9-26-57.9-57.9-57.9zM850.1 761.6H339.4c-22.1 0-40-17.9-40-40V148c0-22.1 17.9-40 40-40h510.7c22.1 0 40 17.9 40 40v573.6c0 22-17.9 40-40 40zM339.4 148v573.6h510.7V148H339.4z"  /><path fill="#000000" d="M708.5 360.2l-105.4-81-122 75.4V142.1h40v140.8l84.5-52.2 62.9 48.3V142.1h40z"  /></svg>