<?xml version="1.0" standalone="no"?><!DOCTYPE svg PUBLIC "-//W3C//DTD SVG 1.1//EN" "http://www.w3.org/Graphics/SVG/1.1/DTD/svg11.dtd"><svg class="icon" width="16px" height="16.00px" viewBox="0 0 1024 1024" version="1.1" xmlns="http://www.w3.org/2000/svg"><path fill="#000000" d="M44 948.2l-0.7-570.6L246.5 78.1h532.2l201.5 299.6 0.2 570.3-936.4 0.2z m39.3-558.3l0.7 518.3 856.4-0.2-0.2-518.1-182.9-271.8H267.7L83.3 389.9z"  /><path fill="#000000" d="M72 363.8h878v40H72z"  /><path fill="#000000" d="M492.004 114.08l40-0.156 1 256-40 0.156zM704.1 559h-383c-11 0-20-9-20-20s9-20 20-20h383c11 0 20 9 20 20s-8.9 20-20 20z"  /></svg>