<?xml version="1.0" standalone="no"?><!DOCTYPE svg PUBLIC "-//W3C//DTD SVG 1.1//EN" "http://www.w3.org/Graphics/SVG/1.1/DTD/svg11.dtd"><svg class="icon" width="16px" height="16.00px" viewBox="0 0 1024 1024" version="1.1" xmlns="http://www.w3.org/2000/svg"><path fill="#000000" d="M876.8 128.1H396.9c-40.2 0-72.9 29.7-72.9 66.1l0.3 97.3C254.8 358.1 128.7 501 111 516c-32.2 27.3-32.3 56.1-32 61.6V802.4c0 0.7-0.1 1.4-0.1 2v57.1c0 18.7 15.2 33.9 33.9 33.9s33.9-15.2 33.9-33.9v-49.3-205.5c0-25.9 18.6-41.4 20.7-43 0.4-0.3 0.9-0.7 1.1-1l144.3-167.3 0.1-0.1c3.3-3 7.6-3.8 11.8-2.2l0.6 182.2-64.4 54.1-0.7 0.6-0.6 0.8c-6.6 9-15.1 30.3 0.2 46s35.4 8.7 43.9 2.7l0.3-0.2L461.4 547c0.4-0.4 0.9-0.8 1.3-1.2 4.5-4.5 10.3-6.7 17.3-6.7 12.6 0.1 28.2 7.9 39.8 19.8 15.5 15.9 15.6 41.8 0.1 57.7L281.4 837l-0.1 0.1c-0.2 0.2-6.1 6-9.4 14.6-3.2 8.5-4.6 21.2 7.4 33.5 6.6 6.8 14.2 10.2 22.6 10.2 10.1 0 19.1-5.1 24.2-9.9l14.9-13.8c13.4 14.5 33.5 23.7 55.9 23.7h479.9c40.2 0 72.9-29.7 72.9-66.1v-635c0-36.5-32.7-66.2-72.9-66.2zM391.7 824.8L567 662.9l0.2-0.2c40.7-41.9 40.7-109.9-0.1-151.7-23.5-24.1-55.9-38.6-86.7-38.7h-0.4c-24.3 0-45.9 8.8-62.3 25.4-0.1 0.1-0.2 0.2-0.4 0.3l-30.5 25.7-0.2-305.2c0-21 7.3-27.3 31.4-27.3l278.1-0.1v643.2l-276.5 0.1c-15.1 0-23.6-2.5-27.9-9.6zM885.5 807c0 21-7.3 27.3-31.4 27.3h-87V191.1h88.6c24.1 0 31.4 6.4 31.4 27.3L885.5 807z" /></svg>