<?xml version="1.0" standalone="no"?><!DOCTYPE svg PUBLIC "-//W3C//DTD SVG 1.1//EN" "http://www.w3.org/Graphics/SVG/1.1/DTD/svg11.dtd"><svg class="icon" width="16px" height="16.00px" viewBox="0 0 1024 1024" version="1.1" xmlns="http://www.w3.org/2000/svg"><path fill="#000000" d="M864.8 835.1H741.6l142.9-142.9c11.7-11.6 11.7-30.7 0-42.4s-30.8-11.7-42.4 0L652.8 839.1c-9 5.2-15.1 14.9-15.1 26 0 16.2 13 29.4 29 30 1.5 0.1 2.9 0.1 4.4 0h193.7c16.5 0 30-13.5 30-30s-13.5-30-30-30zM158.5 187.9h123.3l-143 143c-11.7 11.6-11.7 30.7 0 42.4 11.7 11.6 30.8 11.6 42.5 0l189.4-189.5c8.9-5.2 14.9-14.9 14.9-25.9 0-16.5-13.5-30-30-30H158.5c-16.5 0-30 13.5-30 30s13.5 30 30 30zM776.7 128H605.6c-65.7 0-119.4 53.7-119.4 119.4v238.2H247.5c-65.7 0-119.4 53.7-119.4 119.4v171.1c0 65.7 53.7 119.4 119.4 119.4h171.1c65.7 0 119.4-53.7 119.4-119.4V538h238.8c65.7 0 119.4-53.7 119.4-119.4V247.4c0-65.7-53.8-119.4-119.5-119.4zM478 776.2c0 15.7-6.2 30.6-17.5 41.9-11.3 11.3-26.2 17.5-41.9 17.5H247.5c-15.7 0-30.6-6.2-41.9-17.5-11.4-11.3-17.6-26.1-17.6-41.9V605.1c0-15.7 6.2-30.6 17.5-41.9 11.3-11.3 26.2-17.5 41.9-17.5H478v230.5z m358.1-357.7c0 15.7-6.2 30.6-17.5 41.9S792.5 478 776.7 478H546.2V247.4c0-15.7 6.2-30.6 17.5-41.9s26.2-17.5 41.9-17.5h171.1c15.7 0 30.6 6.2 41.9 17.5 11.3 11.3 17.5 26.2 17.5 41.9v171.1z" /></svg>