<?xml version="1.0" standalone="no"?><!DOCTYPE svg PUBLIC "-//W3C//DTD SVG 1.1//EN" "http://www.w3.org/Graphics/SVG/1.1/DTD/svg11.dtd"><svg class="icon" width="16px" height="16.00px" viewBox="0 0 1024 1024" version="1.1" xmlns="http://www.w3.org/2000/svg"><path fill="#000000" d="M613.1 723.9H413.4v-40h159.7V273H101.2v410.9H188v40H61.2V263c0-16.5 13.5-30 30-30h491.9c16.5 0 30 13.5 30 30v460.9z"  /><path fill="#000000" d="M593.1 683.9h58.4v40h-58.4zM965 724.2l-81.2-0.1v-40h41.1V583L782 403.4l-177.9 0.8-0.2-40 182.8-0.8h0.1c9.2 0 17.7 4.1 23.5 11.3l148.2 186.1c4.2 5.3 6.5 11.9 6.5 18.7v144.7z"  /><path fill="#000000" d="M769.3 833.7c-71.8 0-130.1-58.4-130.1-130.1s58.4-130.1 130.1-130.1 130.1 58.4 130.1 130.1S841 833.7 769.3 833.7z m0-220.3c-49.7 0-90.1 40.4-90.1 90.1s40.4 90.1 90.1 90.1c49.7 0 90.1-40.4 90.1-90.1s-40.4-90.1-90.1-90.1zM303.3 833.7c-71.8 0-130.1-58.4-130.1-130.1s58.4-130.1 130.1-130.1 130.1 58.4 130.1 130.1S375 833.7 303.3 833.7z m0-220.3c-49.7 0-90.1 40.4-90.1 90.1s40.4 90.1 90.1 90.1 90.1-40.4 90.1-90.1-40.4-90.1-90.1-90.1zM354.8 528.3h-55.3v-20.6c-2.2-0.7-4.4-1.6-6.6-2.5l-14.4 14.4-39.1-39.1 13.4-13.4c-1.3-2.5-2.4-5.1-3.4-7.7h-18.7v-55.3h18c1-2.8 2.1-5.6 3.4-8.3l-12.7-12.7 39.1-39.1 13.1 13.1c2.6-1.2 5.2-2.2 7.9-3.1v-18.7h55.3v20.2c2.2 0.9 4.4 1.9 6.6 2.9l14.4-14.4 39.1 39.1-15.5 15.5c0.8 1.8 1.5 3.6 2.1 5.5h22.1v55.3h-22.8c-0.6 1.7-1.3 3.3-2 4.9l16.1 16.1-39.1 39.1-15.7-15.7c-1.7 0.8-3.5 1.6-5.3 2.3v22.2z m-46.5-8.9h37.6v-19.5l3-1c3.4-1.2 6.8-2.7 10-4.4l2.9-1.5 14.1 14.1 26.6-26.6-14.5-14.4 1.4-2.9c1.6-3.1 2.9-6.3 4-9.6l1-3h20.3V413H395l-1-3.1c-1.1-3.5-2.4-6.9-4-10.2l-1.4-2.8 13.7-13.7-26.6-26.6-12.9 12.9-2.9-1.6c-3.6-2-7.3-3.7-11.1-5l-3-1v-17.6h-37.6v16.5l-3.2 0.9c-4.3 1.2-8.5 2.9-12.5 4.9l-2.9 1.4-11.3-11.3-26.6 26.6 11 11-1.5 2.9c-2.2 4.1-3.9 8.4-5.3 12.8l-1 3.1h-15.6v37.6h16.2l1 3c1.4 4.2 3.2 8.3 5.4 12.2l1.6 2.9-11.8 11.8 26.6 26.6 12.6-12.6 2.8 1.4c3.6 1.7 7.4 3.2 11.3 4.3l3.2 0.9v18.2z"  /><path fill="#000000" d="M327.1 468.2c-20.1 0-36.4-16.3-36.4-36.4 0-20.1 16.3-36.4 36.4-36.4 20.1 0 36.4 16.3 36.4 36.4 0.1 20.1-16.3 36.4-36.4 36.4z m0-64c-15.2 0-27.6 12.4-27.6 27.6 0 15.2 12.4 27.6 27.6 27.6 15.2 0 27.6-12.4 27.6-27.6 0-15.2-12.3-27.6-27.6-27.6z"  /></svg>