<?xml version="1.0" standalone="no"?><!DOCTYPE svg PUBLIC "-//W3C//DTD SVG 1.1//EN" "http://www.w3.org/Graphics/SVG/1.1/DTD/svg11.dtd"><svg class="icon" width="16px" height="16.00px" viewBox="0 0 1024 1024" version="1.1" xmlns="http://www.w3.org/2000/svg"><path fill="#000000" d="M378.6 546.1c-61.1 0-118.6-23.8-161.8-67-43.2-43.2-67-100.7-67-161.8s23.8-118.6 67-161.8c43.2-43.2 100.7-67 161.8-67s118.6 23.8 161.8 67c43.2 43.2 67 100.7 67 161.8s-23.8 118.6-67 161.8c-43.2 43.2-100.6 67-161.8 67z m0-417.7c-104.1 0-188.8 84.7-188.8 188.8S274.5 506 378.6 506s188.8-84.7 188.8-188.8-84.6-188.8-188.8-188.8z"  /><path fill="#000000" d="M186.1 297.3h551.2v40H186.1zM694.4 835.8H51.7V708.3l136.4-143.8 400.3 4.1L698 709.7l-3.6 126.1z m-602.7-40h563.8l2.1-72.9-88.9-114.5-363.5-3.7L91.7 724.3v71.5z"  /><path fill="#000000" d="M882.6 690.6H794v-30.1c-4.2-1.5-8.2-3.1-12.2-5l-21.2 21.2-62.8-62.7 21-21c-1.9-4.1-3.7-8.2-5.2-12.5H684v-88.7h29.8c1.5-4.2 3.2-8.3 5.2-12.3l-21.1-21.1 62.7-62.7 21.5 21.5c3.9-1.8 7.9-3.4 11.9-4.9v-30.5h88.7V413c3.9 1.4 7.7 3 11.4 4.8l22.1-22.1 62.7 62.7-22.3 22.3c1.7 3.6 3.2 7.4 4.6 11.1h31.6v88.7h-31.4c-1.4 3.8-2.9 7.6-4.6 11.3L979 614l-62.7 62.7-21.8-21.8c-3.8 1.8-7.7 3.5-11.7 4.9v30.8z m-73.3-15.3h58.1v-26.5l5.3-1.7c6.7-2.1 13.3-4.9 19.5-8.2l5-2.7 18.9 18.9 41.1-41.1-19.2-19.2 2.6-5c3.2-6.1 5.8-12.6 7.9-19.2l1.7-5.4h27.3v-58.1H950l-1.7-5.4c-2-6.5-4.7-12.9-7.9-19l-2.6-5 19.4-19.4-41.1-41.1-19.2 19.2-5-2.7c-6.1-3.3-12.6-6-19.2-8.1l-5.3-1.7V397h-58.1v26.5l-5.4 1.6c-6.8 2.1-13.5 4.8-19.8 8l-5 2.6-18.5-18.5-41.1 41.1 18.3 18.3-2.7 5c-3.4 6.4-6.3 13.2-8.4 20.1l-1.7 5.4h-25.6v58.1h25.5l1.7 5.4c2.1 7 5 13.8 8.4 20.3l2.7 5-18.3 18.1 41.1 41.1 18.3-18.3 5 2.6c6.4 3.3 13.2 6.1 20.1 8.2l5.4 1.6v26.1z"  /><path fill="#000000" d="M838.3 571.2c-19.3 0-35-15.7-35-35s15.7-35 35-35 35 15.7 35 35-15.7 35-35 35z m0-54.6c-10.8 0-19.7 8.8-19.7 19.7s8.8 19.7 19.7 19.7 19.7-8.8 19.7-19.7-8.8-19.7-19.7-19.7z"  /></svg>