<?xml version="1.0" standalone="no"?><!DOCTYPE svg PUBLIC "-//W3C//DTD SVG 1.1//EN" "http://www.w3.org/Graphics/SVG/1.1/DTD/svg11.dtd"><svg class="icon" width="16px" height="16.00px" viewBox="0 0 1024 1024" version="1.1" xmlns="http://www.w3.org/2000/svg"><path fill="#000000" d="M512 954.4L129 733.3V291L511.5 70.2 690 163.8l-18.6 35.4-158.9-83.4L169 314.1v396.1l343 198 343-198V553h40v180.3z"  /><path fill="#000000" d="M531.3 913h-40l1-388.3-334.1-193.4 20-34.6 354.1 205z"  /><path fill="#000000" d="M503.2 495.74l86.98-49.94 19.916 34.688-86.98 49.94zM310.473 227.859l18.088-35.676 256.51 130.053-18.088 35.676z"  /><path fill="#000000" d="M787.7 596c-62.2 0-120.6-24.2-164.5-68.2-44-44-68.2-102.4-68.2-164.5s24.2-120.6 68.2-164.6 102.4-68.2 164.5-68.2 120.6 24.2 164.6 68.2 68.2 102.4 68.2 164.6c0 62.2-24.2 120.6-68.2 164.5-44 44-102.4 68.2-164.6 68.2z m0-425.4C681.4 170.6 595 257 595 363.3S681.4 556 787.7 556s192.7-86.4 192.7-192.7S894 170.6 787.7 170.6z"  /><path fill="#000000" d="M764.1 475.8L647.3 368.7c-8.1-7.5-8.7-20.1-1.2-28.3 7.5-8.1 20.1-8.7 28.3-1.2l88.7 81.4L904 280.9c7.8-7.8 20.5-7.7 28.3 0.1 7.8 7.8 7.7 20.5-0.1 28.3L764.1 475.8z"  /></svg>