<?xml version="1.0" standalone="no"?><!DOCTYPE svg PUBLIC "-//W3C//DTD SVG 1.1//EN" "http://www.w3.org/Graphics/SVG/1.1/DTD/svg11.dtd"><svg class="icon" width="16px" height="16.00px" viewBox="0 0 1024 1024" version="1.1" xmlns="http://www.w3.org/2000/svg"><path fill="#000000" d="M739.3 758c-5.1 0-10.2-2-14.1-5.9L272.6 299.6c-7.8-7.8-7.8-20.5 0-28.3s20.5-7.8 28.3 0l452.5 452.5c7.8 7.8 7.8 20.5 0 28.3-3.9 4-9 5.9-14.1 5.9z"  /><path fill="#000000" d="M286.7 758c-5.1 0-10.2-2-14.1-5.9-7.8-7.8-7.8-20.5 0-28.3l452.5-452.5c7.8-7.8 20.5-7.8 28.3 0 7.8 7.8 7.8 20.5 0 28.3L300.9 752.1c-3.9 4-9 5.9-14.2 5.9z"  /><path fill="#000000" d="M510.9 979.2c-63.1 0-124.2-12.4-181.8-36.7-55.6-23.5-105.6-57.2-148.5-100.1S104 749.6 80.5 693.9c-24.4-57.6-36.7-118.8-36.7-181.8 0-63.1 12.4-124.2 36.7-181.8 23.5-55.6 57.2-105.6 100.1-148.5 42.9-42.9 92.8-76.6 148.5-100.1C386.7 57.3 447.8 45 510.9 45c63.1 0 124.2 12.4 181.8 36.7 55.6 23.5 105.6 57.2 148.5 100.1 42.9 42.9 76.6 92.8 100.1 148.5 24.4 57.6 36.7 118.8 36.7 181.8 0 63.1-12.4 124.2-36.7 181.8-23.5 55.6-57.2 105.6-100.1 148.5S748.3 919 692.7 942.5c-57.6 24.4-118.8 36.7-181.8 36.7z m0-894.2C275.4 85 83.8 276.6 83.8 512.1c0 235.5 191.6 427.1 427.1 427.1 235.5 0 427.1-191.6 427.1-427.1C938 276.6 746.4 85 510.9 85z"  /></svg>