<?xml version="1.0" standalone="no"?><!DOCTYPE svg PUBLIC "-//W3C//DTD SVG 1.1//EN" "http://www.w3.org/Graphics/SVG/1.1/DTD/svg11.dtd"><svg class="icon" width="16px" height="16.00px" viewBox="0 0 1024 1024" version="1.1" xmlns="http://www.w3.org/2000/svg"><path fill="#000000" d="M749.1 883.8H226.9c-22.1 0-40-17.9-40-40V116.2c0-22.1 17.9-40 40-40h521.3c10.7 0 20.7 4.2 28.3 11.7 7.6 7.6 11.7 17.6 11.7 28.3l-0.1 107.8c0 11-9 20-20 20s-20-9-20-20l0.1-107.8H226.9v727.6h522.2l0.1-107.8c0-11 9-20 20-20s20 9 20 20l-0.1 107.8c0 22.1-18 40-40 40z"  /><path fill="#000000" d="M897.4 500l-409.3-0.1c-11 0-20-9-20-20s9-20 20-20l409.3 0.1c11 0 20 9 20 20 0 11.1-9 20-20 20z"  /><path fill="#000000" d="M809.3 596c-5.2 0-10.4-2-14.3-6-7.7-7.9-7.6-20.5 0.2-28.3l83.2-81.8-83.2-82c-7.9-7.8-8-20.4-0.2-28.3 7.8-7.9 20.4-8 28.3-0.2l112.2 110.5-112.2 110.4c-3.9 3.8-9 5.7-14 5.7z"  /></svg>