<?xml version="1.0" standalone="no"?><!DOCTYPE svg PUBLIC "-//W3C//DTD SVG 1.1//EN" "http://www.w3.org/Graphics/SVG/1.1/DTD/svg11.dtd"><svg class="icon" width="16px" height="16.00px" viewBox="0 0 1024 1024" version="1.1" xmlns="http://www.w3.org/2000/svg"><path fill="#000000" d="M985.3 931H58.1V377.7L259.3 78.2h513.4l212.6 299.7V931zM98.1 891h847.2V390.7L752 118.2H280.6L98.1 389.9V891z"  /><path fill="#000000" d="M77.3 363.8h872.3v40H77.3z"  /><path fill="#000000" d="M493.16 378.971l0.666-280.8 40 0.095-0.665 280.8z"  /><path fill="#000000" d="M648 789H439.9v-40H648c41.9 0 75.9-34.1 75.9-75.9s-34.1-75.9-75.9-75.9H330.6v-40H648c63.9 0 115.9 52 115.9 115.9S711.9 789 648 789z"  /><path fill="#000000" d="M380.2 664.9l-100.7-86.3 95.2-99.4 28.9 27.6-66 68.9 68.7 58.8z"  /></svg>