<?xml version="1.0" standalone="no"?><!DOCTYPE svg PUBLIC "-//W3C//DTD SVG 1.1//EN" "http://www.w3.org/Graphics/SVG/1.1/DTD/svg11.dtd"><svg class="icon" width="16px" height="16.00px" viewBox="0 0 1024 1024" version="1.1" xmlns="http://www.w3.org/2000/svg"><path fill="#000000" d="M786.4 820.7h-549c-14.7 0-28.2-8-35.2-21-7-12.9-6.4-28.6 1.7-40.9l64.5-98.7c0.1-26-0.2-52.3-0.5-77.8-0.6-57.4-1.2-116.8 2.1-175.5 2.1-35.2 12.5-68.2 31.7-101l0.1-0.2c25.1-41.9 61.1-75 107-98.5l0.2-0.1c3.1-1.5 5.9-2.2 8-2.4 36.1-16.7 76-23.9 115.6-20.8 39.9 3.1 79.7 16.7 115 39.2l1.9 1.2 3.1 3.1c62.5 41.8 101.6 110.2 107.2 188.1l0.1 0.7v249l60.1 93.8c7.9 12.3 8.4 27.9 1.4 40.8-6.9 13.1-20.4 21-35 21z m-549-39.9z m0-0.1h549L720 677V417.7c-5-65.8-38.1-123.3-91-158l-1.7-1.1-2.9-2.9c-61.1-38.1-131.2-43.1-192.7-13.7-2.8 1.4-5.4 2-7.4 2.3-37.8 19.9-67.4 47.5-88.1 81.9-15.9 27.2-24.5 54.3-26.2 83-3.3 57.3-2.6 115.9-2 172.7 0.3 27.6 0.6 56.1 0.4 84.3v5.9l-71 108.6z m549.1 0zM576.6 908.1H449.2c-11 0-20-9-20-20s9-20 20-20h127.4c11 0 20 9 20 20s-9 20-20 20zM552.3 148.1h-70c-11 0-20-9-20-20s9-20 20-20h70c11 0 20 9 20 20s-9 20-20 20z" /></svg>