<?xml version="1.0" standalone="no"?><!DOCTYPE svg PUBLIC "-//W3C//DTD SVG 1.1//EN" "http://www.w3.org/Graphics/SVG/1.1/DTD/svg11.dtd"><svg class="icon" width="16px" height="16.00px" viewBox="0 0 1024 1024" version="1.1" xmlns="http://www.w3.org/2000/svg"><path fill="#000000" d="M459.6 537.3c-103.2 0-187.2-84-187.2-187.2s84-187.2 187.2-187.2 187.2 84 187.2 187.2-83.9 187.2-187.2 187.2z m0-334.5c-81.2 0-147.2 66-147.2 147.2 0 81.2 66 147.2 147.2 147.2 81.2 0 147.2-66 147.2-147.2 0-81.1-66-147.2-147.2-147.2z"  /><path fill="#000000" d="M546.8 845.7H138.3l-0.4-19.8c0-1.9-0.1-3.9-0.1-5.8 0-85.9 33.5-166.7 94.2-227.5 60.8-60.8 141.6-94.2 227.5-94.2 61.9 0 114.6 20.9 143.3 40.5 9.1 6.2 11.5 18.7 5.3 27.8-6.2 9.1-18.7 11.5-27.8 5.3-22.7-15.5-67.9-33.5-120.7-33.5-150.5 0-273.9 118.7-281.4 267.4h368.6c11 0 20 9 20 20s-8.9 19.8-20 19.8z"  /><path fill="#000000" d="M766.9 878.8h-80V849c-7.6-2.4-15-5.5-22.1-9.2l-21.1 21.1-56.6-56.6 21.5-21.5c-3.6-7-6.5-14.2-8.8-21.7h-30.6v-80h31.4c2.3-7.2 5.3-14.1 8.8-20.8L587.2 638l56.6-56.6 22.8 22.8c6.6-3.4 13.4-6.2 20.4-8.4v-32.3h80v32.3c7 2.2 13.8 5 20.4 8.4l22.8-22.8 56.6 56.6-22.4 22.4c3.5 6.7 6.5 13.6 8.8 20.8h31.4v80H854c-2.3 7.5-5.2 14.7-8.8 21.7l21.5 21.5-56.6 56.6-21.1-21.2c-7.1 3.7-14.4 6.8-22.1 9.2v29.8z m-67.6-12.4h55.1v-26.7l4.6-1.3c9.8-2.7 19.2-6.6 27.9-11.7l4.1-2.4 19 19 39-39-19.3-19.3 2.3-4.1c4.9-8.7 8.6-18 11.1-27.6l1.2-4.6H872v-55.1h-28.3l-1.3-4.5c-2.7-9.3-6.5-18.3-11.4-26.7l-2.4-4.1 20.3-20.3-39-39-20.6 20.6-4.1-2.3c-8.3-4.6-17.2-8.3-26.4-10.8l-4.6-1.3V576h-55.1v29.2l-4.6 1.3c-9.2 2.5-18 6.2-26.4 10.8l-4.1 2.3-20.3-20.6-39 39 20.3 20.3-2.4 4.1c-4.9 8.4-8.7 17.4-11.4 26.7l-1.3 4.5h-28.3v55.1h27.7l1.2 4.6c2.5 9.6 6.3 18.9 11.1 27.6l2.3 4.1-19.3 19.3 39 39 19-19 4.1 2.4c8.8 5.1 18.2 9 27.9 11.7l4.6 1.3v26.7z"  /><path fill="#000000" d="M726.9 776.1c-30.3 0-54.9-24.6-54.9-54.9 0-30.3 24.6-54.9 54.9-54.9 30.3 0 54.9 24.6 54.9 54.9 0 30.3-24.6 54.9-54.9 54.9z m0-97.3c-23.4 0-42.4 19-42.4 42.4s19 42.4 42.4 42.4 42.4-19 42.4-42.4c0.1-23.4-19-42.4-42.4-42.4z"  /></svg>