<?xml version="1.0" standalone="no"?><!DOCTYPE svg PUBLIC "-//W3C//DTD SVG 1.1//EN" "http://www.w3.org/Graphics/SVG/1.1/DTD/svg11.dtd"><svg class="icon" width="16px" height="16.00px" viewBox="0 0 1024 1024" version="1.1" xmlns="http://www.w3.org/2000/svg"><path fill="#000000" d="M270.5 893.9h-180c-16.5 0-30-13.5-30-30v-180c0-16.5 13.5-30 30-30h180c16.5 0 30 13.5 30 30v180c0 16.5-13.5 30-30 30z m-170-40h160v-160h-160v160zM603 893.9H423c-16.5 0-30-13.5-30-30v-180c0-16.5 13.5-30 30-30h180c16.5 0 30 13.5 30 30v180c0 16.5-13.5 30-30 30z m-170-40h160v-160H433v160zM935.5 893.9h-180c-16.5 0-30-13.5-30-30v-180c0-16.5 13.5-30 30-30h180c16.5 0 30 13.5 30 30v180c0 16.5-13.4 30-30 30z m-170-40h160v-160h-160v160zM602.5 313.9h-180c-16.5 0-30-13.5-30-30v-180c0-16.5 13.5-30 30-30h180c16.5 0 30 13.5 30 30v180c0 16.5-13.5 30-30 30z m-170-40h160v-160h-160v160z"  /><path fill="#000000" d="M492.5 289.5h40v370.6h-40z"  /><path fill="#000000" d="M865.5 691.2h-40V519.3h-625v160.8h-40V509.3c0-16.5 13.5-30 30-30h645.1c16.5 0 30 13.5 30 30v181.9z"  /></svg>